<svg width="40" height="40" viewBox="0 0 40 40" fill="none" xmlns="http://www.w3.org/2000/svg">
<path d="M0 6C0 2.68629 2.68629 0 6 0H34C37.3137 0 40 2.68629 40 6V34C40 37.3137 37.3137 40 34 40H6C2.68629 40 0 37.3137 0 34V6Z" fill="white"/>
<path d="M20 22.5C21.3807 22.5 22.5 21.3807 22.5 20C22.5 18.6193 21.3807 17.5 20 17.5C18.6193 17.5 17.5 18.6193 17.5 20C17.5 21.3807 18.6193 22.5 20 22.5Z" stroke="#667085" stroke-width="1.66667" stroke-linecap="round" stroke-linejoin="round"/>
<path d="M26.1667 22.5C26.0557 22.7513 26.0227 23.0301 26.0717 23.3005C26.1207 23.5708 26.2496 23.8202 26.4417 24.0166L26.4917 24.0666C26.6466 24.2214 26.7696 24.4052 26.8534 24.6076C26.9373 24.8099 26.9805 25.0268 26.9805 25.2458C26.9805 25.4648 26.9373 25.6817 26.8534 25.884C26.7696 26.0864 26.6466 26.2702 26.4917 26.425C26.3369 26.5799 26.1531 26.7029 25.9507 26.7867C25.7484 26.8706 25.5315 26.9138 25.3125 26.9138C25.0935 26.9138 24.8766 26.8706 24.6743 26.7867C24.4719 26.7029 24.2881 26.5799 24.1333 26.425L24.0833 26.375C23.8869 26.1829 23.6375 26.054 23.3672 26.005C23.0968 25.956 22.818 25.989 22.5667 26.1C22.3202 26.2056 22.11 26.381 21.9619 26.6046C21.8139 26.8282 21.7344 27.0902 21.7333 27.3583V27.5C21.7333 27.942 21.5577 28.3659 21.2452 28.6785C20.9326 28.991 20.5087 29.1666 20.0667 29.1666C19.6246 29.1666 19.2007 28.991 18.8882 28.6785C18.5756 28.3659 18.4 27.942 18.4 27.5V27.425C18.3936 27.1491 18.3043 26.8816 18.1438 26.6572C17.9833 26.4328 17.759 26.2619 17.5 26.1666C17.2487 26.0557 16.9698 26.0226 16.6995 26.0716C16.4292 26.1207 16.1797 26.2495 15.9833 26.4416L15.9333 26.4916C15.7786 26.6466 15.5947 26.7695 15.3924 26.8534C15.1901 26.9373 14.9732 26.9805 14.7542 26.9805C14.5352 26.9805 14.3183 26.9373 14.1159 26.8534C13.9136 26.7695 13.7298 26.6466 13.575 26.4916C13.42 26.3369 13.2971 26.153 13.2132 25.9507C13.1294 25.7484 13.0862 25.5315 13.0862 25.3125C13.0862 25.0935 13.1294 24.8766 13.2132 24.6742C13.2971 24.4719 13.42 24.2881 13.575 24.1333L13.625 24.0833C13.8171 23.8869 13.946 23.6375 13.995 23.3671C14.044 23.0968 14.0109 22.818 13.9 22.5666C13.7944 22.3202 13.619 22.11 13.3954 21.9619C13.1718 21.8138 12.9098 21.7344 12.6417 21.7333H12.5C12.058 21.7333 11.6341 21.5577 11.3215 21.2452C11.0089 20.9326 10.8333 20.5087 10.8333 20.0666C10.8333 19.6246 11.0089 19.2007 11.3215 18.8881C11.6341 18.5756 12.058 18.4 12.5 18.4H12.575C12.8508 18.3935 13.1183 18.3042 13.3428 18.1437C13.5672 17.9832 13.7381 17.7589 13.8333 17.5C13.9443 17.2486 13.9774 16.9698 13.9283 16.6995C13.8793 16.4292 13.7505 16.1797 13.5583 15.9833L13.5083 15.9333C13.3534 15.7785 13.2305 15.5947 13.1466 15.3924C13.0627 15.19 13.0195 14.9732 13.0195 14.7541C13.0195 14.5351 13.0627 14.3182 13.1466 14.1159C13.2305 13.9136 13.3534 13.7298 13.5083 13.575C13.6631 13.42 13.8469 13.2971 14.0493 13.2132C14.2516 13.1293 14.4685 13.0862 14.6875 13.0862C14.9065 13.0862 15.1234 13.1293 15.3257 13.2132C15.5281 13.2971 15.7119 13.42 15.8667 13.575L15.9167 13.625C16.1131 13.8171 16.3625 13.946 16.6329 13.995C16.9032 14.044 17.182 14.0109 17.4333 13.9H17.5C17.7465 13.7943 17.9567 13.6189 18.1048 13.3954C18.2528 13.1718 18.3323 12.9098 18.3333 12.6416V12.5C18.3333 12.058 18.5089 11.634 18.8215 11.3215C19.1341 11.0089 19.558 10.8333 20 10.8333C20.442 10.8333 20.866 11.0089 21.1785 11.3215C21.4911 11.634 21.6667 12.058 21.6667 12.5V12.575C21.6677 12.8431 21.7472 13.1051 21.8953 13.3287C22.0433 13.5523 22.2535 13.7277 22.5 13.8333C22.7514 13.9442 23.0302 13.9773 23.3005 13.9283C23.5708 13.8793 23.8203 13.7504 24.0167 13.5583L24.0667 13.5083C24.2215 13.3534 24.4053 13.2304 24.6076 13.1465C24.8099 13.0627 25.0268 13.0195 25.2458 13.0195C25.4649 13.0195 25.6817 13.0627 25.8841 13.1465C26.0864 13.2304 26.2702 13.3534 26.425 13.5083C26.58 13.6631 26.7029 13.8469 26.7868 14.0492C26.8706 14.2516 26.9138 14.4685 26.9138 14.6875C26.9138 14.9065 26.8706 15.1234 26.7868 15.3257C26.7029 15.528 26.58 15.7119 26.425 15.8666L26.375 15.9166C26.1829 16.113 26.054 16.3625 26.005 16.6328C25.956 16.9032 25.9891 17.182 26.1 17.4333V17.5C26.2056 17.7465 26.381 17.9567 26.6046 18.1047C26.8282 18.2528 27.0902 18.3322 27.3583 18.3333H27.5C27.942 18.3333 28.366 18.5089 28.6785 18.8215C28.9911 19.134 29.1667 19.558 29.1667 20C29.1667 20.442 28.9911 20.8659 28.6785 21.1785C28.366 21.4911 27.942 21.6666 27.5 21.6666H27.425C27.1569 21.6677 26.8949 21.7472 26.6713 21.8952C26.4477 22.0433 26.2723 22.2535 26.1667 22.5Z" stroke="#667085" stroke-width="1.66667" stroke-linecap="round" stroke-linejoin="round"/>
</svg>
